Coordinates
version=1
nRows=7
nColumns=40
inDegrees=yes

Units are S.I. units (second, meters, Newtons, ...)
If the header above contains a line with 'inDegrees', this indicates whether rotational values are in degrees (yes) or radians (no).

endheader
time	pelvis_tilt	pelvis_list	pelvis_rotation	pelvis_tx	pelvis_ty	pelvis_tz	hip_flexion_r	hip_adduction_r	hip_rotation_r	knee_angle_r	knee_angle_r_beta	ankle_angle_r	subtalar_angle_r	mtp_angle_r	hip_flexion_l	hip_adduction_l	hip_rotation_l	knee_angle_l	knee_angle_l_beta	ankle_angle_l	subtalar_angle_l	mtp_angle_l	lumbar_extension	lumbar_bending	lumbar_rotation	arm_flex_r	arm_add_r	arm_rot_r	elbow_flex_r	pro_sup_r	wrist_flex_r	wrist_dev_r	arm_flex_l	arm_add_l	arm_rot_l	elbow_flex_l	pro_sup_l	wrist_flex_l	wrist_dev_l
      3.43500000	     -2.99031058	     -0.08554865	     -0.46011055	     -0.39184581	      0.80521424	     -1.03150986	     52.94728557	     -1.06075190	      4.71081163	      7.43838376	      0.12982429	     -2.22622399	      0.00000000	      0.00000000	     43.87328385	      0.77982484	     -7.55441548	     67.11948322	      1.17145597	     16.96042884	      0.00000000	      0.00000000	    -18.84357340	     -0.49294482	      1.67360638	     89.89505459	    -13.25831607	     13.84515792	     32.98362604	     76.91911164	      0.00000000	      0.00000000	     89.87950306	    -18.91486465	     16.66809228	     38.36304433	     79.97440823	      0.00000000	      0.00000000
      3.44000000	     -3.14269553	     -0.00403255	     -0.53747344	     -0.39225859	      0.80388414	     -1.03130185	     53.09018974	     -0.87428061	      6.06651700	      7.13172452	      0.12447207	     -3.43017748	      0.00000000	      0.00000000	     44.21443117	      0.81263971	     -7.59491498	     67.36898350	      1.17581058	     17.06308102	      0.00000000	      0.00000000	    -18.70703914	     -0.61859648	      1.71041504	     89.89645342	    -13.23759711	     13.21868437	     33.08244251	     80.26853297	      0.00000000	      0.00000000	     89.88087639	    -18.88300544	     16.02630591	     38.44824219	     83.72891678	      0.00000000	      0.00000000
      3.44500000	     -3.31649831	      0.01581352	     -0.46999310	     -0.39282750	      0.80261857	     -1.03120763	     53.55324311	     -0.91991028	      5.69562742	      7.57663011	      0.13223714	     -3.28609322	      0.00000000	      0.00000000	     44.55432228	      0.85952894	     -7.56253515	     67.54508694	      1.17888416	     17.31165936	      0.00000000	      0.00000000	    -18.54748547	     -0.65411395	      1.62436170	     89.89770536	    -13.03670465	     12.94267139	     33.00629903	     77.85916254	      0.00000000	      0.00000000	     89.88219445	    -18.66840122	     15.68063116	     38.43649948	     80.98648612	      0.00000000	      0.00000000
      3.45000000	     -3.38713142	      0.06408682	     -0.51037374	     -0.39321428	      0.80141478	     -1.03111918	     53.81128795	     -0.90008604	      5.45379843	      7.82422530	      0.13655849	     -3.08657843	      0.00000000	      0.00000000	     44.81000199	      0.93378937	     -7.47827343	     67.79213423	      1.18319595	     17.40133825	      0.00000000	      0.00000000	    -18.48586444	     -0.71890683	      1.61084196	     89.89849227	    -12.84534712	     12.76978105	     33.05626559	     75.74369255	      0.00000000	      0.00000000	     89.88454667	    -18.56034312	     15.47667185	     38.44056237	     78.70421294	      0.00000000	      0.00000000
      3.45500000	     -3.30337639	      0.07620035	     -0.62168705	     -0.39328915	      0.80065408	     -1.03113661	     53.46361346	     -0.91946929	      5.91115101	      7.27287829	      0.12693567	     -2.91236829	      0.00000000	      0.00000000	     44.85021136	      0.86550059	     -7.57015957	     68.05049909	      1.18770527	     17.39363824	      0.00000000	      0.00000000	    -18.64881949	     -0.74636576	      1.80389862	     89.89906297	    -13.35329288	     13.15301863	     33.52312158	     79.63684728	      0.00000000	      0.00000000	     89.88517697	    -18.75375007	     15.52907476	     38.79432047	     83.92653830	      0.00000000	      0.00000000
      3.46000000	     -3.37329180	     -0.07845349	     -0.61875927	     -0.39370623	      0.79943806	     -1.03075571	     53.52040414	     -0.71996662	      6.18828057	      7.02002295	      0.12252251	     -3.65102049	      0.00000000	      0.00000000	     45.13707231	      0.68537387	     -7.45642844	     68.39112898	      1.19365038	     17.48946730	      0.00000000	      0.00000000	    -18.59814469	     -0.62104626	      1.83940306	     89.90052272	    -13.32315872	     12.93387105	     33.59132286	     80.38025623	      0.00000000	      0.00000000	     89.88662358	    -18.73476526	     15.39746691	     38.95218636	     83.77005880	      0.00000000	      0.00000000
      3.46500000	     -3.47525152	     -0.05264366	     -0.63253837	     -0.39401879	      0.79824662	     -1.03073788	     53.69588538	     -0.72074072	      6.17977998	      7.02049923	      0.12253083	     -3.69764889	      0.00000000	      0.00000000	     45.39797655	      0.70669219	     -7.45376657	     68.61835534	      1.19761623	     17.63218657	      0.00000000	      0.00000000	    -18.51604519	     -0.66123852	      1.84062378	     89.90142987	    -13.31475369	     12.81181340	     33.70114390	     80.58340738	      0.00000000	      0.00000000	     89.88761382	    -18.72665095	     15.35452031	     39.07656476	     83.55124457	      0.00000000	      0.00000000
